<svg fill="#000000" xmlns="http://www.w3.org/2000/svg"  viewBox="0 0 64 64" width="64px" height="64px"><path d="M 15.90625 3.0019531 C 15.327652 3.0049798 14.740535 3.0671088 14.152344 3.1914062 C 9.0351056 4.2735543 5.9434738 9.4596724 7.3339844 14.425781 L 10.871094 27.064453 C 9.0127923 28.717099 8 31.057716 8 33.875 L 8 40 C 8 51.929861 17.549216 61 30 61 C 39.858831 61 48.202054 54.46068 50.984375 45.494141 C 52.953888 44.2692 54.522642 42.404648 55.177734 40.060547 L 56.576172 35.060547 C 57.25925 32.62353 56.949143 30.046894 55.708984 27.841797 C 54.468523 25.636161 52.425332 24.033422 49.986328 23.349609 L 49.984375 23.349609 C 48.956094 23.062254 47.927105 23.055372 46.916016 23.113281 C 45.750448 21.444254 44.118728 20.200282 42.171875 19.552734 L 43.666016 14.431641 L 43.666016 14.425781 C 45.056573 9.4597124 41.964894 4.271601 36.847656 3.1894531 C 32.142278 2.1951047 27.544405 5.2474615 26.259766 9.8359375 L 25.5 12.554688 L 24.740234 9.8378906 C 23.776725 6.397265 20.94974 3.8184245 17.611328 3.1640625 C 17.054926 3.0550021 16.484848 2.9989265 15.90625 3.0019531 z M 15.921875 5.0019531 C 16.370234 5.0005891 16.813902 5.0450759 17.246094 5.1308594 C 19.839245 5.6455599 22.054462 7.6630789 22.814453 10.376953 L 24.4375 16.183594 C 24.566644 16.670367 25.068756 17 25.5 17 C 25.930748 17 26.436386 16.659092 26.5625 16.177734 L 26.564453 16.177734 L 28.185547 10.375 C 29.198908 6.755476 32.800972 4.3788328 36.433594 5.1464844 C 40.452356 5.9963365 42.827724 10.002828 41.740234 13.886719 L 39.677734 20.958984 L 40.736328 21.181641 C 40.982812 21.233321 41.142136 21.253614 41.226562 21.277344 L 41.228516 21.277344 C 43.074336 21.794103 44.600693 22.958122 45.595703 24.583984 L 45.929688 25.130859 L 46.564453 25.054688 C 47.506186 24.943375 48.48059 25.006078 49.445312 25.275391 C 51.386308 25.819578 52.979305 27.069902 53.964844 28.822266 C 54.950685 30.575168 55.193313 32.584502 54.650391 34.521484 L 53.25 39.521484 C 52.69835 41.495439 51.3684 43.100529 49.648438 44.054688 L 49.291016 44.253906 L 49.175781 44.646484 C 46.731751 52.928454 39.072735 59 30 59 C 18.506784 59 10 50.874139 10 40 L 10 33.875 C 10 31.252829 10.855913 29.456161 12.589844 28.169922 L 13.142578 27.759766 L 9.2597656 13.886719 C 8.1722762 10.002828 10.547644 5.9963365 14.566406 5.1464844 C 15.020465 5.0505319 15.473516 5.0033171 15.921875 5.0019531 z M 35.066406 7 C 34.896774 6.9981998 34.727833 7.0061059 34.560547 7.0214844 C 32.553677 7.2059734 30.759245 8.6023016 30.185547 10.650391 L 26.703125 23.085938 C 26.514255 23.760209 26.037168 24 25.5 24 C 24.962832 24 24.485745 23.760209 24.296875 23.085938 L 20.814453 10.652344 L 20.814453 10.650391 C 20.049447 7.9193842 17.115172 6.3499375 14.398438 7.2617188 C 11.804989 8.1333598 10.52543 10.993372 11.244141 13.560547 L 15.414062 28.457031 C 13.411778 29.320394 12 31.314869 12 33.625 L 12 40 C 12 49.656166 19.835846 57 30 57 C 34.446021 57 38.514977 55.362349 41.650391 52.679688 A 1.0001264 1.0001264 0 0 0 40.349609 51.160156 C 37.557023 53.549494 33.955979 55 30 55 C 20.782154 55 14 48.587834 14 40 L 14 33.625 C 14 31.61159 15.61159 30 17.625 30 L 31.5 30 C 33.444423 30 35 31.555577 35 33.5 C 35 35.444423 33.444423 37 31.5 37 L 23 37 A 1.0001 1.0001 0 1 0 23 39 C 23 39 24.503248 39.01162 26.003906 39.869141 C 27.504565 40.72666 29 42.291667 29 46 A 1.0001 1.0001 0 1 0 31 46 C 31 42.574009 29.718003 40.346604 28.185547 39 L 30.957031 39 C 31.159299 41.20316 32.672558 43.166685 34.923828 43.796875 C 35.416896 43.934434 35.916651 44 36.408203 44 C 38.610455 44 40.630738 42.654787 41.480469 40.576172 C 42.185173 41.620969 43.245028 42.432532 44.546875 42.796875 C 45.040307 42.934549 45.540474 43.001953 46.03125 43.001953 C 48.439629 43.001953 50.648335 41.403425 51.324219 38.982422 L 52.724609 33.982422 C 53.540266 31.06919 51.824494 28.01875 48.910156 27.203125 C 48.182132 27.000118 47.444587 26.954965 46.736328 27.046875 C 45.995752 27.142979 45.292039 27.398961 44.65625 27.771484 C 44.368895 25.661721 42.863587 23.811299 40.691406 23.203125 C 40.145693 23.050828 39.593177 22.987355 39.052734 23.003906 C 38.872587 23.009423 38.694626 23.023936 38.517578 23.046875 C 37.982257 23.116233 37.463353 23.265225 36.976562 23.482422 L 39.755859 13.560547 C 40.474732 10.99407 39.195287 8.1334526 36.601562 7.2617188 C 36.092008 7.0904708 35.575304 7.0054006 35.066406 7 z M 34.726562 9.0058594 C 35.129521 8.9711451 35.549251 9.0185337 35.964844 9.1582031 C 37.477119 9.6664691 38.279205 11.416055 37.830078 13.019531 L 34.900391 23.480469 L 33.525391 28.392578 C 32.897519 28.14175 32.214745 28 31.5 28 L 17.365234 28 L 13.169922 13.019531 C 12.720633 11.414707 13.522604 9.6665621 15.035156 9.1582031 C 16.697844 8.6001778 18.42492 9.5315786 18.888672 11.189453 A 1.0001 1.0001 0 0 0 18.888672 11.191406 L 22.369141 23.625 C 22.794271 25.142728 24.177168 26 25.5 26 C 26.822832 26 28.205729 25.142728 28.630859 23.625 L 32.111328 11.191406 A 1.0001 1.0001 0 0 0 32.111328 11.189453 C 32.459158 9.9459903 33.517687 9.1100022 34.726562 9.0058594 z M 39.451172 25.005859 C 39.68361 25.022704 39.918653 25.063688 40.152344 25.128906 C 42.025016 25.653223 43.10504 27.569224 42.580078 29.441406 L 42.154297 30.960938 C 42.148385 30.981186 42.138507 30.999164 42.132812 31.019531 L 40.732422 36.017578 C 40.72643 36.038978 40.724469 36.060617 40.71875 36.082031 L 39.775391 39.443359 C 39.340399 40.997906 37.935824 42 36.408203 42 C 36.096388 42 35.779227 41.95721 35.462891 41.869141 L 35.460938 41.869141 C 34.008625 41.461861 33.057112 40.212201 32.941406 38.800781 C 35.272271 38.162742 37 36.026428 37 33.5 C 37 31.939702 36.339474 30.528753 35.287109 29.525391 L 35.839844 27.554688 C 36.297548 25.917489 37.824105 24.887949 39.451172 25.005859 z M 47.669922 29.007812 C 47.902335 29.025021 48.137428 29.065845 48.371094 29.130859 C 50.244756 29.655234 51.323172 31.570591 50.798828 33.443359 L 49.398438 38.443359 C 48.96432 39.998356 47.558871 41.001953 46.03125 41.001953 C 45.720655 41.001953 45.401873 40.959053 45.085938 40.871094 L 45.083984 40.871094 C 43.223755 40.349478 42.152574 38.454113 42.652344 36.59375 L 44.083984 31.488281 C 44.495806 30.123424 45.65143 29.193012 46.982422 29.025391 C 47.207774 28.997011 47.437508 28.990604 47.669922 29.007812 z M 45.486328 44.986328 A 1.0001 1.0001 0 0 0 44.558594 45.587891 C 44.178529 46.425887 43.704265 47.224894 43.173828 48 A 1.0005835 1.0005835 0 1 0 44.826172 49.128906 C 45.405735 48.282013 45.938971 47.382113 46.378906 46.412109 A 1.0001 1.0001 0 0 0 45.486328 44.986328 z M 5.4023438 47.435547 A 1.0001 1.0001 0 0 0 5.0429688 47.505859 L 3.1757812 48.222656 A 1.0001 1.0001 0 1 0 3.8925781 50.089844 L 5.7597656 49.373047 A 1.0001 1.0001 0 0 0 5.4023438 47.435547 z M 7.6640625 51.960938 A 1.0001 1.0001 0 0 0 7.125 52.119141 L 5.4296875 53.179688 A 1.0001661 1.0001661 0 0 0 6.4882812 54.876953 L 8.1855469 53.816406 A 1.0001 1.0001 0 0 0 7.6640625 51.960938 z M 10.748047 55.972656 A 1.0001 1.0001 0 0 0 10.050781 56.251953 L 8.5878906 57.615234 A 1.0001 1.0001 0 1 0 9.9511719 59.078125 L 11.414062 57.714844 A 1.0001 1.0001 0 0 0 10.748047 55.972656 z M 14.539062 59.326172 A 1.0001 1.0001 0 0 0 13.708984 59.75 L 12.533203 61.367188 A 1.0001 1.0001 0 1 0 14.150391 62.542969 L 15.326172 60.925781 A 1.0001 1.0001 0 0 0 14.539062 59.326172 z"/></svg>