<svg fill="#000000" xmlns="http://www.w3.org/2000/svg"  viewBox="0 0 64 64" width="64px" height="64px"><path d="M7 14c-.552 0-1 .447-1 1v2c0 .553.448 1 1 1s1-.447 1-1v-2C8 14.447 7.552 14 7 14zM12 14c-.552 0-1 .447-1 1v2c0 .553.448 1 1 1s1-.447 1-1v-2C13 14.447 12.552 14 12 14zM17 14c-.552 0-1 .447-1 1v2c0 .553.448 1 1 1s1-.447 1-1v-2C18 14.447 17.552 14 17 14zM22 14c-.552 0-1 .447-1 1v2c0 .553.448 1 1 1s1-.447 1-1v-2C23 14.447 22.552 14 22 14zM27 14c-.552 0-1 .447-1 1v2c0 .553.448 1 1 1s1-.447 1-1v-2C28 14.447 27.552 14 27 14zM32 14c-.552 0-1 .447-1 1v2c0 .553.448 1 1 1s1-.447 1-1v-2C33 14.447 32.552 14 32 14zM37 14c-.552 0-1 .447-1 1v2c0 .553.448 1 1 1s1-.447 1-1v-2C38 14.447 37.552 14 37 14zM42 14c-.552 0-1 .447-1 1v2c0 .553.448 1 1 1s1-.447 1-1v-2C43 14.447 42.552 14 42 14zM47 14c-.552 0-1 .447-1 1v2c0 .553.448 1 1 1s1-.447 1-1v-2C48 14.447 47.552 14 47 14zM52 14c-.552 0-1 .447-1 1v2c0 .553.448 1 1 1s1-.447 1-1v-2C53 14.447 52.552 14 52 14zM57 14c-.552 0-1 .447-1 1v2c0 .553.448 1 1 1s1-.447 1-1v-2C58 14.447 57.552 14 57 14zM53 50h4c.552 0 1-.447 1-1s-.448-1-1-1h-4c-.552 0-1 .447-1 1S52.448 50 53 50zM6 49c0 .553.448 1 1 1h42c.552 0 1-.447 1-1s-.448-1-1-1H7C6.448 48 6 48.447 6 49z"/><path d="M61,10H43.535l-3.11-4.664C39.869,4.501,38.933,4,37.93,4H26.07c-1.003,0-1.94,0.501-2.496,1.336L20.465,10H3c-1.657,0-3,1.343-3,3v9.803c0,1.622,0.774,3.067,2,3.985V52c0,2.209,1.791,4,4,4h52c2.209,0,4-1.791,4-4V26.788c1.226-0.918,2-2.363,2-3.985V13C64,11.343,62.657,10,61,10z M25.238,6.445C25.424,6.166,25.735,6,26.07,6H37.93c0.335,0,0.646,0.166,0.832,0.445L41.131,10H22.869L25.238,6.445z M60,52c0,1.104-0.895,2-2,2H6c-1.105,0-2-0.896-2-2V27.703l24,5.42V37c0,1.104,0.895,2,2,2h4c1.105,0,2-0.896,2-2v-3.878l24-5.42V52z M30,37v-6h4l0.001,6H30z M62,14c-0.552,0-1,0.447-1,1v2c0,0.553,0.448,1,1,1v4.803c0,1.411-0.962,2.614-2.339,2.926L36,31.071V31c0-1.103-0.897-2-2-2h-4c-1.103,0-2,0.897-2,2v0.071L4.339,25.729C2.962,25.417,2,24.214,2,22.803V18c0.552,0,1-0.447,1-1v-2c0-0.553-0.448-1-1-1v-1c0-0.552,0.449-1,1-1h16.131h25.737H61c0.551,0,1,0.448,1,1V14z"/></svg>